<?xml version="1.0" ?><svg enable-background="new 0 0 64 64" viewBox="0 0 64 64" xmlns="http://www.w3.org/2000/svg"><path d="M17.45 10.442c.267-.534-.79-.904-1.208-.534-1.565 1.38-1.7 6.007-1.207 7.163.492 1.158 1.386 3.783 2.19 4.14.806.355 1.387-.045 1.387-.49s-1.878-2.225-2.28-4.36c-.403-2.137.85-5.385 1.117-5.918zm21.1 3.025c0 .578.493.8.85.667.358-.133.58-.534.626-1.913.045-1.378-1.61-3.914-2.46-4.582-.848-.667-1.488-1.04-1.877-.756-.672.49 1.16 2.18 2.19 3.38 1.03 1.203.67 2.627.67 3.205zm-4.246 8.9c1.162-2.315.268-7.253-2.28-12.237-2.548-4.983-6.438-4.672-7.556-4.182-5.99 2.625-5.678 6.763-4.918 9.522.76 2.76 2.772 7.742 7.02 9.344 4.247 1.6 6.57-.135 7.734-2.448zm-12.34-6.542c-.535-2.536.403-4.894 2.37-5.65 1.758-.677 4.47-.312 6.617 2.49s2.952 6.986 1.88 9.167c-1.074 2.18-3.22 2.848-5.232 1.78s-5.097-5.25-5.633-7.787zm14.754 17.04c-.94-4.582 3.04-5.472 5.052-8.23 2.012-2.76 3.13-6.985 2.95-9.3-.178-2.313-1.92-6.94-1.877-7.563.045-.623 4.38-3.648 4.694-4.093.313-.446.626-1.47.313-2.27s-.94-.8-2.682-.845C43.424.52 32.918-.148 28.626.03s-8.763 1.335-12.25 3.026c-3.487 1.69-6.483 4.36-8.137 7.964s-1.834 6.007-.672 10.545 4.65 7.252 6.393 8.587c1.745 1.335 8.406 2.27 8.898 2.492 0 0 .134.49.224 1.112.09.623.447 1.157.447 1.157s-.225.178-1.297.267c-1.073.09-5.23 1.29-8.63 3.515-3.397 2.225-8.136 6.318-7.555 10.812.582 4.493 1.655 7.608 5.857 10.767 4.202 3.16 8.405 4.227 15.782 3.515 7.377-.713 12.965-4.762 15.2-8.544 2.235-3.782 2.235-7.43.715-11.48-1.52-4.048-5.945-6.317-6.884-10.9zm5.454 16.02c-.358-.223-3.8-3.116-4.74-3.427-.938-.31-1.25-.534-1.43-.133-.18.4-.313.98.313 1.112.626.133 3.666 2.358 4.292 2.76.626.4 1.207.444 1.252.933.044.49-.046 1.335-.314 1.157-.268-.178-4.515-3.56-4.784-3.515-.268.045-.984.667-.58.98.4.31 4.65 3.29 4.65 3.736s-.27.934-.448.89c-.18-.044-4.247-3.337-4.515-3.114-.27.222-.85.89-.672.98.18.088 3.666 2.67 3.62 2.936-.044.267-.76 1.2-.983.934-.224-.267-2.46-2.67-2.86-2.625-.403.044-.806.533-.716.71.088.18 2.547 2.315 2.458 2.537-.09.222-.805.49-.805.49s-2.28-1.914-2.682-1.825c-.4.09-.893.534-.67.712.224.178 2.19 1.646 2.056 1.824-.134.178-1.207.578-1.207.578s-1.79-2.002-2.192-1.69c-.402.31-.984.266-.715.577.268.31 1.475 1.78 1.207 2.002-.268.222-5.41 1.157-10.774.712-5.365-.445-9.39-2.002-11.132-4.36-1.744-2.358-2.46-6.05-1.878-8.365.58-2.314 4.158-5.562 7.153-7.297 2.994-1.735 7.957-2.937 8.672-3.026.715-.09 1.475-.446 1.34-1.202-.133-.756-.893-2.18-.312-3.115.58-.934 2.817-2.892 2.37-3.337-.448-.445-.895-.267-3.98-.49s-8.897-1.156-10.82-2.624c-1.92-1.468-4.157-4.538-3.933-10.19.085-2.14 1.967-6.362 4.65-8.586 2.682-2.225 8.45-4.05 10.82-4.583 2.37-.534 8.18-.356 11.355-.31 3.174.044 9.7-.09 9.925.22.224.312-4.56 2.982-4.828 3.338-.27.357-.448 1.425.088 2.537.536 1.112 1.386 4.227 1.7 5.65.312 1.425-.046 2.404-.046 2.404s-1.7-1.645-1.878-1.378c-.18.267-.894.8-.447 1.023.447.222 1.878 1.69 1.967 1.913.09.223.224 1.602-.045 1.424-.27-.178-2.64-2.892-2.996-2.625-.358.267-1.028.4-.492.8s3.13 2.85 3.13 3.116c0 .267-.225 1.29-.537 1.246-.313-.046-3.487-3.427-3.8-3.294-.313.133-.67.49-.536.712.133.222 3.53 3.47 3.486 3.693-.045.224-.76 1.113-.94 1.07-.178-.045-2.77-2.893-2.95-2.76-.18.133-.626.8-.402 1.023.224.223 2.46 2.447 2.37 2.67-.09.223-.493.89-.895.845-.403-.045-1.834-1.69-2.147-1.602-.313.09-.94.267-.715.623.224.355 1.878 1.823 1.744 2.046-.134.222-1.386 1.602-1.61 2.358-.223.756-.357 1.69-.357 1.69s-2.95-2.357-3.22-2.224-.58.845-.312 1.023c.268.178 2.86 1.958 2.906 2.09.044.134.357 1.024.088.89-.268-.132-2.37-1.78-2.504-1.512-.134.268.134 1.07.268 1.247.134.178 2.46 1.69 2.593 2.002.134.31.536 1.78.536 1.78s-2.234-1.914-2.413-1.514c-.18.4 0 1.023.313 1.2.313.18 3.532 2.003 3.98 2.448s.535 1.068.535 1.068-.94.756-.67.98c.267.22 3.173 1.734 4.246 2.67 1.074.933 1.566 2.046 1.566 2.402 0 .356-.268.445-.268.445s-4.47-3.872-5.365-3.738c-.894.133-.58.8-.224 1.157.357.355 5.006 3.647 5.453 3.96.447.31.85.577.85.89.003.31.137 1.466-.22 1.244zm-27.584-6.052c-.18-.356-.67-.356-2.28.445-1.61.8-2.727 2.58-3.264 3.515-.536.934-.268 3.782-.045 3.915 0 0 .49.133 1.072.09.58-.046.313-3.205.76-4.272.447-1.068 2.46-2.225 3.264-2.536.805-.312.67-.8.492-1.157zm5.99-2.136c-3.71 1.157-6.036 4.193-7.107 5.473-2.68 3.204-.714 6.63 1.253 8.365 1.967 1.735 4.515 2.403 9.433 2.27 4.918-.134 8.36-2.938 9.88-6.186 1.52-3.25 0-5.74-2.1-7.832-2.103-2.09-7.647-3.248-11.357-2.09zm9.97 12.325c-2.37 1.29-6.214 2.447-9.076 2.447-2.86 0-6.17-2.36-5.9-4.628s1.564-4.27 2.816-4.983c1.57-.894 5.544-2.493 8.807-2.36 3.264.134 5.14 2.626 5.544 4.406.4 1.78.178 3.825-2.192 5.116zm27.272-19.8c.268-.178.224-4.672-.045-5.428-.268-.756-3.666-.89-3.845-.934-.18-.045-.18-2.358-.447-2.98-.268-.624-5.616-.33-5.857-.09-.224.222.045 3.16.045 3.426 0 .267-4.112.133-4.65.267s-.223 5.34 0 5.65c.225.312 2.728.18 2.952.223.224.045.313 2.09.313 2.76s2.504 2.046 2.906 2.268c.403.222 5.41-.09 6.036-.49.626-.4.09-4.226.134-4.448.046-.224 2.192-.046 2.46-.224zm-5.633-1.513c0 .533.358 4.092.18 4.226s-3.175.045-3.354-.178c-.18-.222-.224-3.87-.536-4.004-.313-.133-4.337.09-4.38-.133-.046-.22-.493-2.67.267-2.802.76-.133 4.515.223 4.56-.31.045-.535-.045-3.027.134-3.427.167-.374 2.906-.266 3.085.134.18.4-.045 3.026.358 3.16.403.132 3.354.043 3.488.31s.18 2.76-.09 2.892c-.27.133-3.71-.4-3.71.133z"/></svg>